{"title":"Zotz(1962)MPEG-4[DaScubaDude]","uid":14234350,"size":863126502,"categoryP":"video","categoryS":"movies","magnet":"?xt=urn:btih:82757af8a4dbc507b7c18542d84a8f7d57655064&amp;dn=Zotz%281962%29MPEG-4%5BDaScubaDude%5D&amp;tr=udp%3A%2F%2Ftracker.leechers-paradise.org%3A6969&amp;tr=udp%3A%2F%2Fzer0day.ch%3A1337&amp;tr=udp%3A%2F%2Fopen.demonii.com%3A1337&amp;tr=udp%3A%2F%2Ftracker.coppersurfer.tk%3A6969&amp;tr=udp%3A%2F%2Fexodus.desync.com%3A6969","seeders":0,"leechers":1,"uploader":"dascuba","files":1,"time":1460085340,"description":"Zotz! (1962)\r\nNot Rated | 1h 27min | Comedy, Fantasy | July 1962 (USA)\r\nJonathan Jones, a professor of ancient languages, comes into possession of an ancient coin. He translates its inscription, which gives him three powers: to inflict pain, slow down time or ... See full summary »\r\nDirector: William Castle\r\nWriters: Ray Russell (screenplay), Walter Karig (novel)\r\nStars: Tom Poston, Julia Meade, Jim Backus \r\n\r\nGeneral\r\nComplete name                            : ZotzOut_Title62.mp4\r\nFormat                                   : MPEG-4\r\nFormat profile                           : Base Media\r\nCodec ID                                 : isom\r\nFile size                                : 823 MiB\r\nDuration                                 : 1h 25mn\r\nOverall bit rate                         : 1 345 Kbps\r\nMovie name                               : DVD\r\nGenre                                    : Horror\r\nWriting application                      : Lavf54.6.100\r\n\r\nVideo\r\nID                                       : 1\r\nFormat                                   : AVC\r\nFormat/Info                              : Advanced Video Codec\r\nFormat profile                           :   \r\nFormat settings, CABAC                   : No\r\nFormat settings, ReFrames                : 6 frames\r\nCodec ID                                 : avc1\r\nCodec ID/Info                            : Advanced Video Coding\r\nDuration                                 : 1h 25mn\r\nBit rate                                 : 1 203 Kbps\r\nWidth                                    : 720 pixels\r\nHeight                                   : 404 pixels\r\nDisplay aspect ratio                     : 16:9\r\nFrame rate mode                          : Constant\r\nFrame rate                               : 29.970 fps\r\nColor space                              : YUV\r\nChroma subsampling                       : 4:2:0\r\nBit depth                                : 8 bits\r\nScan type                                : Progressive\r\nBits/(Pixel*Frame)                       : 0.138\r\nStream size                              : 736 MiB (89%)\r\n\r\nAudio\r\nID                                       : 2\r\nFormat                                   : AAC\r\nFormat/Info                              : Advanced Audio Codec\r\nFormat profile                           : LC\r\nCodec ID                                 : 40\r\nDuration                                 : 1h 25mn\r\nBit rate mode                            : Constant\r\nBit rate                                 : 135 Kbps\r\nChannel(s)                               : 2 channels\r\nChannel positions                        : Front: L R\r\nSampling rate                            : 44.1 KHz\r\nCompression mode                         : Lossy\r\nStream size                              : 82.8 MiB (10%)","torrent":{"xt":"urn:btih:82757af8a4dbc507b7c18542d84a8f7d57655064","amp;dn":"Zotz%281962%29MPEG-4%5BDaScubaDude%5D","amp;tr":["udp%3A%2F%2Ftracker.leechers-paradise.org%3A6969","udp%3A%2F%2Fzer0day.ch%3A1337","udp%3A%2F%2Fopen.demonii.com%3A1337","udp%3A%2F%2Ftracker.coppersurfer.tk%3A6969","udp%3A%2F%2Fexodus.desync.com%3A6969"],"infoHash":"82757af8a4dbc507b7c18542d84a8f7d57655064","infoHashBuffer":{"type":"Buffer","data":[130,117,122,248,164,219,197,7,183,193,133,66,216,74,143,125,87,101,80,100]},"announce":[],"urlList":[]}}